{
  "accessors": [
    {
      "bufferView": 2,
      "componentType": 5126,
      "count": 62084,
      "max": [
        51.55473327636719,
        25.648759841918945,
        131.5581817626953
      ],
      "min": [
        -51.58149719238281,
        -26.706119537353516,
        -1.9073486328125e-05
      ],
      "type": "VEC3"
    },
    {
      "bufferView": 2,
      "byteOffset": 745008,
      "componentType": 5126,
      "count": 62084,
      "type": "VEC3"
    },
    {
      "bufferView": 3,
      "componentType": 5126,
      "count": 62084,
      "type": "VEC4"
    },
    {
      "bufferView": 1,
      "componentType": 5126,
      "count": 62084,
      "type": "VEC2"
    },
    {
      "bufferView": 1,
      "byteOffset": 496672,
      "componentType": 5126,
      "count": 62084,
      "type": "VEC2"
    },
    {
      "bufferView": 1,
      "byteOffset": 993344,
      "componentType": 5126,
      "count": 62084,
      "type": "VEC2"
    },
    {
      "bufferView": 0,
      "componentType": 5125,
      "count": 282690,
      "type": "SCALAR"
    },
    {
      "bufferView": 2,
      "byteOffset": 1490016,
      "componentType": 5126,
      "count": 143,
      "max": [
        19.334712982177734,
        -4.924296855926514,
        111.84239959716797
      ],
      "min": [
        -19.36147689819336,
        -17.742219924926758,
        85.32389831542969
      ],
      "type": "VEC3"
    },
    {
      "bufferView": 2,
      "byteOffset": 1491732,
      "componentType": 5126,
      "count": 143,
      "type": "VEC3"
    },
    {
      "bufferView": 1,
      "byteOffset": 1490016,
      "componentType": 5126,
      "count": 143,
      "type": "VEC2"
    },
    {
      "bufferView": 1,
      "byteOffset": 1491160,
      "componentType": 5126,
      "count": 143,
      "type": "VEC2"
    },
    {
      "bufferView": 0,
      "byteOffset": 1130760,
      "componentType": 5125,
      "count": 720,
      "type": "SCALAR"
    },
    {
      "bufferView": 2,
      "byteOffset": 1493448,
      "componentType": 5126,
      "count": 143,
      "max": [
        19.334712982177734,
        -4.236293792724609,
        111.84239959716797
      ],
      "min": [
        -19.36147689819336,
        -17.054216384887695,
        85.32389831542969
      ],
      "type": "VEC3"
    },
    {
      "bufferView": 2,
      "byteOffset": 1495164,
      "componentType": 5126,
      "count": 143,
      "type": "VEC3"
    },
    {
      "bufferView": 1,
      "byteOffset": 1492304,
      "componentType": 5126,
      "count": 143,
      "type": "VEC2"
    },
    {
      "bufferView": 1,
      "byteOffset": 1493448,
      "componentType": 5126,
      "count": 143,
      "type": "VEC2"
    },
    {
      "bufferView": 0,
      "byteOffset": 1133640,
      "componentType": 5125,
      "count": 720,
      "type": "SCALAR"
    }
  ],
  "asset": {
    "generator": "fab-model-conversion",
    "version": "2.0"
  },
  "bufferViews": [
    {
      "buffer": 0,
      "byteLength": 1136520,
      "target": 34963
    },
    {
      "buffer": 0,
      "byteLength": 1494592,
      "byteOffset": 1136520,
      "byteStride": 8,
      "target": 34962
    },
    {
      "buffer": 0,
      "byteLength": 1496880,
      "byteOffset": 2631112,
      "byteStride": 12,
      "target": 34962
    },
    {
      "buffer": 0,
      "byteLength": 993344,
      "byteOffset": 4127992,
      "byteStride": 16,
      "target": 34962
    }
  ],
  "buffers": [
    {
      "byteLength": 5121336,
      "uri": "scene.bin"
    }
  ],
  "images": [
    {
      "uri": "textures/K-VRC_MAT_baseColor.png"
    },
    {
      "uri": "textures/K-VRC_MAT_metallicRoughness.png"
    },
    {
      "uri": "textures/K-VRC_MAT_normal.png"
    },
    {
      "uri": "textures/K-VRC_SCREEN_MAT_baseColor.png"
    },
    {
      "uri": "textures/K-VRC_SCREEN_MAT_metallicRoughness.png"
    },
    {
      "uri": "textures/K-VRC_FACE_MAT1_baseColor.png"
    },
    {
      "uri": "textures/K-VRC_FACE_MAT1_emissive.png"
    }
  ],
  "materials": [
    {
      "doubleSided": true,
      "name": "K-VRC_MAT",
      "normalTexture": {
        "index": 2,
        "texCoord": 1
      },
      "pbrMetallicRoughness": {
        "baseColorTexture": {
          "index": 0
        },
        "metallicRoughnessTexture": {
          "index": 1
        }
      }
    },
    {
      "doubleSided": true,
      "name": "K-VRC_SCREEN_MAT",
      "pbrMetallicRoughness": {
        "baseColorTexture": {
          "index": 3
        },
        "metallicRoughnessTexture": {
          "index": 4
        }
      }
    },
    {
      "doubleSided": true,
      "emissiveFactor": [
        1.0,
        1.0,
        1.0
      ],
      "emissiveTexture": {
        "index": 6
      },
      "name": "K-VRC_FACE_MAT1",
      "pbrMetallicRoughness": {
        "baseColorTexture": {
          "index": 5
        },
        "metallicFactor": 0.0
      }
    }
  ],
  "meshes": [
    {
      "name": "K-VRC_K-VRC_MAT_0",
      "primitives": [
        {
          "attributes": {
            "NORMAL": 1,
            "POSITION": 0,
            "TANGENT": 2,
            "TEXCOORD_0": 3,
            "TEXCOORD_1": 4,
            "TEXCOORD_2": 5
          },
          "indices": 6,
          "material": 0,
          "mode": 4
        }
      ]
    },
    {
      "name": "K-VRC_K-VRC_SCREEN_MAT_0",
      "primitives": [
        {
          "attributes": {
            "NORMAL": 8,
            "POSITION": 7,
            "TEXCOORD_0": 9,
            "TEXCOORD_1": 10
          },
          "indices": 11,
          "material": 1,
          "mode": 4
        }
      ]
    },
    {
      "name": "K-VRC_K-VRC_FACE_MAT1_0",
      "primitives": [
        {
          "attributes": {
            "NORMAL": 13,
            "POSITION": 12,
            "TEXCOORD_0": 14,
            "TEXCOORD_1": 15
          },
          "indices": 16,
          "material": 2,
          "mode": 4
        }
      ]
    }
  ],
  "nodes": [
    {
      "children": [
        1
      ],
      "matrix": [
        1.0,
        0.0,
        0.0,
        0.0,
        0.0,
        2.220446049250313e-16,
        -1.0,
        0.0,
        0.0,
        1.0,
        2.220446049250313e-16,
        0.0,
        0.0,
        0.0,
        0.0,
        1.0
      ],
      "name": "Sketchfab_model"
    },
    {
      "children": [
        2
      ],
      "matrix": [
        0.009999999776482582,
        0.0,
        0.0,
        0.0,
        0.0,
        0.0,
        0.009999999776482582,
        0.0,
        0.0,
        -0.009999999776482582,
        0.0,
        0.0,
        0.0,
        0.0,
        0.0,
        1.0
      ],
      "name": "k_vrc.fbx"
    },
    {
      "children": [
        3
      ],
      "name": "RootNode"
    },
    {
      "children": [
        4,
        5,
        6
      ],
      "matrix": [
        1.0,
        0.0,
        0.0,
        0.0,
        0.0,
        -2.8212996916465727e-07,
        -0.9999999999999603,
        0.0,
        0.0,
        0.9999999999999603,
        -2.8212996916465727e-07,
        0.0,
        0.013382911682128906,
        -2.09808349609375e-05,
        -0.5452829003334045,
        1.0
      ],
      "name": "K-VRC"
    },
    {
      "mesh": 0,
      "name": "K-VRC_K-VRC_MAT_0"
    },
    {
      "mesh": 1,
      "name": "K-VRC_K-VRC_SCREEN_MAT_0"
    },
    {
      "mesh": 2,
      "name": "K-VRC_K-VRC_FACE_MAT1_0"
    }
  ],
  "samplers": [
    {
      "magFilter": 9729,
      "minFilter": 9987,
      "wrapS": 10497,
      "wrapT": 10497
    }
  ],
  "scene": 0,
  "scenes": [
    {
      "name": "Sketchfab_Scene",
      "nodes": [
        0
      ]
    }
  ],
  "textures": [
    {
      "sampler": 0,
      "source": 0
    },
    {
      "sampler": 0,
      "source": 1
    },
    {
      "sampler": 0,
      "source": 2
    },
    {
      "sampler": 0,
      "source": 3
    },
    {
      "sampler": 0,
      "source": 4
    },
    {
      "sampler": 0,
      "source": 5
    },
    {
      "sampler": 0,
      "source": 6
    }
  ]
}
